<?xml version="1.0" standalone="no"?>
<!DOCTYPE svg PUBLIC "-//W3C//DTD SVG 20010904//EN"
 "http://www.w3.org/TR/2001/REC-SVG-20010904/DTD/svg10.dtd">
<svg version="1.0" xmlns="http://www.w3.org/2000/svg"
 width="256.000000pt" height="256.000000pt" viewBox="0 0 256.000000 256.000000"
 preserveAspectRatio="xMidYMid meet">
<metadata>
Created by potrace 1.14, written by Peter Selinger 2001-2017
</metadata>
<g transform="translate(0.000000,256.000000) scale(0.100000,-0.100000)"
fill="#000000" stroke="none">
<path d="M230 2114 c0 -5 20 -24 44 -41 55 -39 91 -100 105 -177 15 -79 15
-1087 0 -1175 -5 -36 -19 -86 -31 -113 -19 -45 -86 -118 -108 -118 -6 0 -10
-7 -10 -16 0 -14 7 -16 43 -10 23 3 84 9 135 12 l92 7 0 814 0 813 -42 1 c-24
0 -85 4 -136 7 -62 5 -92 4 -92 -4z"/>
<path d="M1640 2113 c0 -7 15 -20 33 -29 135 -68 153 -178 144 -879 -5 -436
-12 -523 -46 -600 -22 -48 -66 -94 -103 -107 -16 -6 -28 -17 -28 -25 0 -16 39
-15 223 4 l57 6 0 813 0 814 -62 1 c-35 0 -98 4 -140 7 -60 6 -78 5 -78 -5z"/>
<path d="M668 2113 l-78 -4 0 -813 0 -814 363 -6 c199 -3 380 -8 403 -12 l40
-6 46 174 c25 95 48 183 51 196 10 42 -20 23 -52 -33 -97 -172 -175 -205 -488
-205 -199 0 -203 0 -217 23 -28 42 -36 211 -36 717 0 548 4 596 58 679 14 23
45 50 69 63 24 13 43 29 43 35 0 13 -18 14 -202 6z"/>
<path d="M2118 2113 l-98 -4 0 -813 0 -813 88 -7 c48 -4 108 -9 135 -13 39 -5
47 -3 47 11 0 9 -5 16 -10 16 -21 0 -104 86 -121 125 -35 79 -41 190 -36 736
4 563 6 588 58 663 21 32 79 76 99 76 5 0 10 7 10 15 0 11 -10 14 -37 13 -21
-1 -82 -4 -135 -5z"/>
</g>
</svg>
