<?xml version="1.0" standalone="no"?>
<!DOCTYPE svg PUBLIC "-//W3C//DTD SVG 20010904//EN"
 "http://www.w3.org/TR/2001/REC-SVG-20010904/DTD/svg10.dtd">
<svg version="1.0" xmlns="http://www.w3.org/2000/svg"
 width="500.000000pt" height="500.000000pt" viewBox="0 0 500.000000 500.000000"
 preserveAspectRatio="xMidYMid meet">
<metadata>
Created by potrace 1.14, written by Peter Selinger 2001-2017
</metadata>
<g transform="translate(0.000000,500.000000) scale(0.100000,-0.100000)"
fill="#000000" stroke="none">
<path d="M3025 4255 c-62 -28 -87 -67 -81 -122 2 -15 4 -33 5 -40 0 -6 23 -35
49 -65 72 -80 91 -110 90 -149 -1 -50 -23 -85 -77 -124 -43 -31 -48 -38 -46
-70 2 -20 5 -38 8 -41 9 -10 127 56 169 94 58 52 102 130 114 200 1 8 5 16 8
19 3 3 1 14 -5 24 -5 11 -6 19 -1 19 11 0 -3 90 -21 135 -6 17 -19 39 -29 49
-10 11 -18 22 -18 25 0 3 -15 16 -33 28 -41 28 -93 35 -132 18z m10 -75 c-3
-5 -12 -10 -18 -10 -7 0 -6 4 3 10 19 12 23 12 15 0z m-5 -33 c0 -7 12 -28 28
-45 51 -59 77 -94 90 -123 14 -34 0 -40 -15 -6 -6 12 -36 50 -67 85 -51 57
-71 102 -46 102 6 0 10 -6 10 -13z"/>
<path d="M769 4245 c-1 0 -3 -20 -4 -45 l-3 -46 46 -1 c76 -2 107 -12 133 -39
l24 -26 0 -501 c0 -525 -2 -555 -43 -573 -10 -4 -48 -10 -87 -13 l-70 -6 -2
-42 -2 -43 573 0 574 0 61 176 c33 97 61 180 61 185 0 5 -23 9 -50 9 -43 0
-55 -4 -78 -29 -105 -112 -130 -136 -180 -170 -91 -61 -165 -80 -307 -77 -131
2 -158 11 -174 57 -5 14 -9 249 -9 521 0 462 1 498 18 526 21 33 75 51 149 47
l41 -2 0 46 0 46 -335 0 c-184 0 -336 0 -336 0z m282 -209 c5 -365 3 -930 -4
-966 -4 -24 -14 -51 -23 -60 -15 -14 -15 -13 -4 10 17 33 18 1059 1 1105 l-11
30 20 -24 c16 -18 20 -39 21 -95z m754 -1005 c-13 -26 -21 -31 -53 -31 l-37 1
36 19 c19 10 41 26 49 35 20 24 23 10 5 -24z"/>
<path d="M2144 4237 c-14 -8 -19 -44 -8 -71 4 -11 19 -16 48 -16 56 0 109 -16
122 -37 6 -10 11 -37 12 -60 0 -24 1 -44 2 -45 1 -2 3 -56 4 -120 1 -77 -2
-118 -8 -118 -8 0 -8 -3 -1 -8 14 -9 13 -135 0 -144 -7 -5 -7 -8 0 -8 14 0 14
-160 0 -160 -7 0 -7 -3 0 -8 14 -9 14 -155 0 -164 -7 -5 -7 -8 0 -8 12 0 14
-109 2 -127 -4 -6 -3 -14 2 -17 16 -10 -10 -86 -35 -103 -13 -8 -52 -18 -87
-20 l-62 -5 -2 -44 -2 -44 326 2 327 3 1 38 c2 41 2 41 -88 52 -27 3 -57 11
-67 17 -35 22 -34 10 -45 503 -4 165 -8 334 -9 375 -2 43 3 89 11 108 7 18 12
36 12 40 -10 67 27 93 156 107 11 1 22 3 25 4 3 0 5 19 5 41 0 36 -2 40 -25
41 -156 5 -605 2 -616 -4z m252 -116 c16 -24 18 -69 18 -526 1 -275 -1 -515
-4 -534 -3 -19 -11 -36 -19 -39 -10 -3 -11 2 -6 18 4 13 7 253 7 535 1 532 0
541 -41 572 -14 10 -13 11 6 6 12 -3 30 -17 39 -32z"/>
<path d="M3640 3759 c-191 -22 -300 -190 -227 -349 31 -68 80 -107 215 -171
68 -33 149 -76 180 -98 49 -33 57 -43 57 -70 1 -17 -3 -31 -7 -31 -4 0 -8 -6
-8 -13 0 -17 -45 -39 -85 -42 -68 -5 -175 77 -245 187 -24 39 -43 57 -60 60
-38 6 -62 -2 -56 -18 3 -8 1 -14 -5 -14 -6 0 -6 -7 -1 -17 4 -10 7 -27 6 -38
-5 -35 -5 -59 -1 -97 2 -21 0 -38 -4 -38 -4 0 -3 -13 2 -29 9 -25 21 -31 100
-56 216 -66 369 -46 473 61 56 57 79 118 73 189 -9 125 -45 158 -292 280 -164
81 -194 99 -203 123 -12 35 8 79 42 92 74 28 193 -45 288 -177 27 -36 34 -41
66 -39 36 2 37 3 35 41 -1 22 -3 75 -4 117 -1 43 -5 82 -8 87 -10 15 -163 59
-221 63 -30 2 -80 1 -110 -3z m233 -130 c3 -10 1 -22 -4 -25 -5 -3 -9 0 -9 7
0 6 -12 22 -27 36 l-28 23 31 -10 c18 -6 34 -20 37 -31z m-204 -320 c177 -84
211 -102 211 -111 0 -4 6 -8 13 -8 14 0 41 -39 33 -47 -3 -3 -15 6 -28 19 -13
14 -86 55 -163 93 -149 73 -193 101 -237 148 -45 48 -32 48 18 0 30 -28 85
-62 153 -94z m-171 -264 c9 -20 9 -25 -2 -25 -8 0 -16 11 -18 25 -3 14 -2 25
2 25 4 0 12 -11 18 -25z"/>
<path d="M2314 2119 c-65 -21 -124 -45 -133 -54 -9 -8 -11 -15 -4 -15 12 0 12
-17 1 -36 -5 -7 12 -15 44 -23 50 -11 88 -34 88 -53 0 -8 -20 -61 -61 -163 -7
-16 -13 -32 -13 -35 -1 -3 -25 -66 -55 -140 -29 -74 -64 -164 -78 -200 -15
-36 -26 -71 -26 -77 0 -7 -3 -13 -7 -13 -7 0 -35 -80 -32 -92 1 -5 -3 -8 -8
-8 -6 0 -10 -4 -10 -9 0 -5 -5 -22 -12 -38 -6 -15 -13 -37 -15 -48 -2 -10 -7
-22 -11 -25 -4 -3 -15 -21 -25 -41 -37 -72 -124 -149 -169 -149 -20 0 -19 0
-22 -50 l-1 -35 231 -3 232 -2 4 27 c7 49 -1 60 -44 67 -41 7 -104 58 -93 76
3 5 1 11 -3 14 -12 7 -7 110 7 144 6 15 16 41 22 57 7 17 13 32 13 35 1 3 7
19 14 37 l14 31 201 1 202 1 11 -27 c12 -29 26 -64 29 -73 2 -5 6 -15 32 -80
37 -91 54 -153 49 -175 -6 -25 -53 -45 -108 -45 -26 0 -28 -3 -28 -45 l0 -45
292 2 292 3 -1 33 c-1 17 -2 36 -2 41 -1 5 -16 12 -33 15 -59 11 -96 42 -126
103 -15 32 -29 60 -32 63 -3 3 -6 12 -8 20 -1 8 -7 25 -12 38 -14 32 -23 53
-75 187 -26 66 -52 131 -58 145 -5 14 -11 31 -13 38 -1 8 -6 21 -10 30 -4 9
-8 19 -8 22 -1 3 -7 14 -13 25 -6 11 -12 25 -13 30 -1 6 -7 21 -13 35 -5 14
-11 30 -12 35 -2 6 -19 53 -40 105 -34 88 -44 113 -66 165 -14 32 -32 80 -33
85 -1 3 -5 11 -9 18 -5 6 -6 12 -3 12 4 0 -3 16 -14 37 -10 20 -17 40 -14 45
3 4 2 8 -3 9 -68 8 -104 3 -209 -32z m96 -183 c12 -28 28 -65 36 -83 8 -17 14
-33 14 -36 0 -3 5 -18 12 -34 6 -15 12 -30 13 -33 1 -3 7 -18 14 -35 7 -16 14
-34 15 -40 2 -5 8 -21 13 -35 6 -14 23 -56 38 -95 14 -38 31 -78 36 -87 5 -10
9 -25 9 -33 0 -8 4 -15 8 -15 5 0 9 -6 9 -12 2 -20 27 -82 36 -89 5 -3 8 -9 8
-13 -2 -20 13 -66 22 -66 6 0 8 -3 5 -6 -4 -3 4 -29 17 -57 12 -29 24 -56 25
-62 1 -5 7 -21 12 -35 6 -14 11 -32 13 -40 2 -8 4 -15 6 -15 7 0 5 -86 -2 -91
-5 -3 -9 1 -10 8 -3 56 -11 94 -23 121 -16 36 -26 68 -25 81 0 5 -3 12 -8 15
-7 5 -30 58 -37 86 -1 6 -10 28 -20 50 -10 22 -19 45 -20 50 -1 6 -10 27 -19
49 -9 21 -17 40 -17 42 0 1 -5 15 -12 31 -6 15 -12 31 -13 36 -2 4 -4 10 -5
15 -1 4 -2 10 -1 15 0 4 -4 7 -11 7 -6 0 -9 3 -6 6 4 3 -3 27 -14 52 -10 26
-23 56 -28 67 -4 11 -18 47 -30 80 -12 33 -31 79 -41 102 -11 24 -19 46 -19
51 0 14 -39 90 -50 97 -5 3 -10 10 -10 16 0 24 40 -20 60 -65z m35 -301 c4
-11 9 -22 10 -25 9 -26 18 -48 26 -62 5 -10 9 -22 9 -27 0 -5 5 -22 12 -38 6
-15 11 -31 10 -35 -1 -5 3 -8 10 -8 6 0 8 -3 5 -7 -4 -3 -2 -12 4 -20 14 -16
26 -15 -173 -17 -117 -1 -159 2 -162 11 -3 7 -1 15 5 18 5 4 7 11 4 16 -4 5
-2 9 3 9 8 0 47 108 44 123 -1 4 3 7 10 7 6 0 8 3 5 6 -4 4 0 19 8 33 11 22
48 115 51 131 2 9 16 45 27 68 10 21 14 15 47 -70 20 -51 40 -102 45 -113z
m-448 -692 c-4 -3 0 -15 10 -25 15 -17 14 -18 -27 -18 l-43 0 23 25 c13 14 28
25 33 25 6 0 7 -3 4 -7z"/>
<path d="M460 2108 c0 -21 -1 -41 -2 -45 -2 -4 22 -8 52 -10 84 -5 120 -20
135 -57 16 -39 20 -983 4 -1033 -13 -41 -60 -63 -133 -63 -46 0 -56 -3 -57
-17 0 -10 -2 -30 -3 -45 l-2 -28 578 0 c318 0 577 3 576 8 -2 10 13 65 22 77
4 6 16 37 26 70 9 33 18 62 19 65 1 3 7 18 13 33 7 16 12 34 12 42 0 8 4 16 9
19 5 3 11 17 13 31 5 24 4 25 -50 24 -52 -2 -58 -4 -91 -43 -45 -51 -144 -146
-153 -146 -4 0 -13 -6 -20 -12 -19 -19 -86 -49 -139 -63 -59 -16 -216 -19
-267 -6 -80 22 -75 -9 -76 540 -1 269 2 507 7 528 10 52 47 74 132 76 50 2 65
5 66 17 0 8 2 25 5 38 2 14 -2 25 -12 29 -9 3 -162 6 -340 7 l-324 1 0 -37z
m277 -106 c5 -21 9 -264 9 -549 l-1 -512 -24 -23 -23 -23 13 25 c20 36 22
1049 3 1097 -10 26 -10 31 1 27 7 -3 17 -22 22 -42z m766 -1067 c-15 -32 -21
-35 -57 -35 l-41 1 30 16 c17 9 41 24 54 34 32 26 33 24 14 -16z"/>
<path d="M3227 2142 c-13 -3 -17 -14 -17 -46 l0 -42 60 -2 c85 -2 117 -21 127
-74 5 -24 8 -257 8 -518 0 -370 -3 -482 -14 -507 -15 -38 -52 -53 -127 -53
l-54 0 0 -45 0 -45 428 1 c387 0 434 2 501 20 208 54 318 205 281 387 -28 135
-133 230 -300 268 l-35 8 44 7 c66 13 131 48 182 100 57 59 76 108 77 195 1
117 -57 213 -168 278 -107 63 -149 68 -586 70 -215 0 -398 0 -407 -2z m718
-96 c151 -28 212 -296 100 -443 -36 -46 -94 -60 -246 -62 l-125 -2 0 198 c-1
131 3 200 10 205 8 5 7 8 -1 8 -13 0 -10 28 6 58 11 20 49 39 91 44 29 4 131
0 165 -6z m-457 -52 c4 -16 7 -252 7 -524 -1 -407 -4 -501 -15 -527 -21 -47
-30 -41 -16 10 13 48 14 1009 1 1062 -6 22 -5 27 4 19 6 -6 15 -24 19 -40z
m691 -97 c29 -87 7 -241 -40 -283 l-21 -19 20 35 c26 44 32 77 32 170 0 68
-15 138 -33 156 -4 4 -7 14 -7 23 0 22 34 -35 49 -82z m-217 -463 c69 -23 132
-89 153 -160 24 -80 16 -203 -15 -259 -50 -89 -110 -116 -255 -116 -91 0 -148
19 -161 55 -4 12 -8 128 -9 259 l-1 237 121 0 c84 0 136 -5 167 -16z m238
-142 c29 -74 10 -272 -29 -296 -5 -4 -2 8 7 26 11 24 17 64 18 138 1 97 -1
110 -27 165 -16 33 -29 62 -29 65 0 11 47 -67 60 -98z"/>
</g>
</svg>
